<?xml version="1.0" encoding="utf-8"?>
<!-- Generator: Adobe Illustrator 23.0.4, SVG Export Plug-In . SVG Version: 6.00 Build 0)  -->
<svg version="1.1" id="a6dc9487-50e2-4fb9-af91-bf1b7118d463"
	 xmlns="http://www.w3.org/2000/svg" xmlns:xlink="http://www.w3.org/1999/xlink" x="0px" y="0px" viewBox="0 0 1103.8 707.8"
	 style="enable-background:new 0 0 1103.8 707.8;" xml:space="preserve">
<style type="text/css">
	.st0{opacity:0.1;}
	.st1{fill:#FFC107;}
	.st2{opacity:0.1;fill:#FFC107;enable-background:new    ;}
	.st3{fill:#FFFFFF;}
	.st4{fill:#3F3D56;}
	.st5{opacity:0.8;fill:#FA5959;enable-background:new    ;}
	.st6{opacity:0.8;fill:#FED253;enable-background:new    ;}
	.st7{opacity:0.8;fill:#8CCF4D;enable-background:new    ;}
	.st8{opacity:0.2;fill:#FFC107;enable-background:new    ;}
	.st9{fill:none;stroke:#3F3D56;stroke-miterlimit:10;}
	.st10{opacity:0.1;enable-background:new    ;}
	.st11{fill:#E6E8EC;}
</style>
<title>mind map</title>
<g class="st0">
	<path class="st1" d="M625,26.8c0,156.1,97.9,282.4,219,282.4"/>
</g>
<path class="st2" d="M627.4,130c-70.8,0.5-138.7-15.4-203.7-33.3s-129.5-37.9-198.8-46c-44.6-5.3-95.4-4.4-130.5,16
	c-33.8,19.7-43.7,51.9-48.7,81.6c-3.7,22.4-5.5,45.9,7.5,66.2c9,14.1,24.6,25.7,35.6,39.2c38.3,46.8,14.5,107.1-23.4,155.5
	c-17.8,22.7-38.6,44.5-52.1,68.5s-19.2,51.1-5.8,74.6c13.3,23.3,43.5,40,76.1,51.5c66.1,23.1,143.2,27.7,218.3,29.2
	c166.1,3.2,332.7-6.6,498.8-16.5c61.5-3.7,123.2-7.3,183.5-17.2c33.5-5.5,67.9-13.4,91.7-30.6c30.2-21.8,36.7-57.1,15-82.3
	c-36.4-42.3-133-49.7-159-95.5c-14.3-25.2-1.6-54.4,17-78.9c39.9-52.6,108.3-100,110-158.6c1.1-40.2-34-79.3-86.7-96.4
	c-55.2-18-130.8-12.8-169.9,21.6C762.2,113.9,689.9,129.6,627.4,130z"/>
<path class="st3" d="M946.9,31.2v518.4c0,15.4-14.9,28-33.2,28H210.2c-18.4,0-33.2-12.5-33.2-28V31.2C177,15.7,191.9,0,210.2,0
	l703.3,1.7C931.9,1.7,946.9,15.7,946.9,31.2z"/>
<path class="st4" d="M946.9,31.3v24H177v-24C177,14,191,0,208.4,0h707.2C932.8,0,946.9,14,946.9,31.3
	C946.9,31.3,946.9,31.3,946.9,31.3z"/>
<circle class="st5" cx="214.3" cy="27.7" r="11.1"/>
<ellipse transform="matrix(0.1891 -0.982 0.982 0.1891 172.7386 264.5191)" class="st6" cx="246.5" cy="27.7" rx="11.1" ry="11.1"/>
<circle class="st7" cx="278.8" cy="27.7" r="11.1"/>
<path class="st8" d="M465.6,170.7h52.9c4.7,0,8.6,3.8,8.6,8.6v16.1c0,4.7-3.8,8.6-8.6,8.6h-52.9c-4.7,0-8.6-3.8-8.6-8.6v-16.1
	C457,174.5,460.8,170.7,465.6,170.7z"/>
<path class="st8" d="M607.4,170.7h52.9c4.7,0,8.6,3.8,8.6,8.6v16.1c0,4.7-3.8,8.6-8.6,8.6h-52.9c-4.7,0-8.6-3.8-8.6-8.6v-16.1
	C598.8,174.5,602.7,170.7,607.4,170.7z"/>
<polyline class="st9" points="491.8,203.2 561.9,294.7 634.1,202.7 "/>
<path class="st10" d="M516.9,291.8h89.9c4.7,0,8.6,3.8,8.6,8.6V334c0,4.7-3.8,8.6-8.6,8.6h-89.9c-4.7,0-8.6-3.8-8.6-8.6v-33.6
	C508.4,295.6,512.2,291.8,516.9,291.8z"/>
<path class="st1" d="M519.1,292.8h85.5c4.7,0,8.6,3.8,8.6,8.6V333c0,4.7-3.8,8.6-8.6,8.6h-85.5c-4.7,0-8.6-3.8-8.6-8.6v-31.6
	C510.5,296.6,514.4,292.8,519.1,292.8z"/>
<line class="st9" x1="492.3" y1="170.7" x2="491.4" y2="138.4"/>
<polyline class="st9" points="675.2,139.9 634.1,170.7 590.8,139.9 "/>
<path class="st8" d="M465.2,106.7H518c4.7,0,8.6,3.8,8.6,8.6v16.1c0,4.7-3.8,8.6-8.6,8.6h-52.9c-4.7,0-8.6-3.8-8.6-8.6v-16.1
	C456.6,110.5,460.4,106.7,465.2,106.7z"/>
<path class="st8" d="M648.8,106.7h52.9c4.7,0,8.6,3.8,8.6,8.6v16.1c0,4.7-3.8,8.6-8.6,8.6h-52.9c-4.7,0-8.6-3.8-8.6-8.6v-16.1
	C640.2,110.5,644,106.7,648.8,106.7z"/>
<path class="st8" d="M564.4,106.7h52.9c4.7,0,8.6,3.8,8.6,8.6v16.1c0,4.7-3.8,8.6-8.6,8.6h-52.9c-4.7,0-8.6-3.8-8.6-8.6v-16.1
	C555.8,110.5,559.6,106.7,564.4,106.7z"/>
<line class="st9" x1="561.9" y1="341.5" x2="561.6" y2="430"/>
<path class="st9" d="M561.4,462.5L561.4,462.5z"/>
<polyline class="st9" points="462.4,493.1 561.4,462.5 660.8,492.9 "/>
<path class="st8" d="M535.2,430h52.9c4.7,0,8.6,3.8,8.6,8.6v16.1c0,4.7-3.8,8.6-8.6,8.6h-52.9c-4.7,0-8.6-3.8-8.6-8.6v-16.1
	C526.6,433.8,530.5,430,535.2,430z"/>
<path class="st8" d="M865.4,239.2v52.9c0,4.7-3.8,8.6-8.6,8.6h-16.1c-4.7,0-8.6-3.8-8.6-8.6v-52.9c0-4.7,3.8-8.6,8.6-8.6h16.1
	C861.6,230.6,865.4,234.5,865.4,239.2z"/>
<path class="st8" d="M832.2,401.7v-52.9c0-4.7,3.8-8.6,8.6-8.6h16.1c4.7,0,8.6,3.8,8.6,8.6v52.9c0,4.7-3.8,8.6-8.6,8.6h-16.1
	C836,410.3,832.2,406.4,832.2,401.7z"/>
<path class="st8" d="M634.4,492.7h52.9c4.7,0,8.6,3.8,8.6,8.6v16.1c0,4.7-3.8,8.6-8.6,8.6h-52.9c-4.7,0-8.6-3.8-8.6-8.6v-16.1
	C625.8,496.5,629.7,492.7,634.4,492.7z"/>
<path class="st8" d="M488.9,525.9H436c-4.7,0-8.6-3.8-8.6-8.6v-16.1c0-4.7,3.8-8.6,8.6-8.6h52.9c4.7,0,8.6,3.8,8.6,8.6v16.1
	C497.4,522.1,493.6,525.9,488.9,525.9z"/>
<path class="st8" d="M589.8,525.9h-52.9c-4.7,0-8.6-3.8-8.6-8.6v-16.1c0-4.7,3.8-8.6,8.6-8.6h52.9c4.7,0,8.6,3.8,8.6,8.6v16.1
	C598.4,522.1,594.5,525.9,589.8,525.9z"/>
<line class="st9" x1="801" y1="320.5" x2="832.2" y2="374.9"/>
<line class="st9" x1="735.1" y1="319.8" x2="767.8" y2="319.8"/>
<line class="st9" x1="613.2" y1="317.1" x2="702.5" y2="319.8"/>
<line class="st9" x1="832.2" y1="265.6" x2="801.2" y2="320.2"/>
<path class="st8" d="M735.7,293.1V346c0,4.7-3.8,8.6-8.6,8.6h-16.1c-4.7,0-8.6-3.8-8.6-8.6v-52.9c0-4.7,3.8-8.6,8.6-8.6h16.1
	C731.9,284.6,735.7,288.4,735.7,293.1z"/>
<path class="st8" d="M801,294v52.9c0,4.7-3.8,8.6-8.6,8.6h-16.1c-4.7,0-8.6-3.8-8.6-8.6V294c0-4.7,3.8-8.6,8.6-8.6h16.1
	C797.2,285.4,801,289.3,801,294z"/>
<path class="st8" d="M291.6,239.2v52.9c0,4.7-3.8,8.6-8.6,8.6H267c-4.7,0-8.6-3.8-8.6-8.6v-52.9c0-4.7,3.8-8.6,8.6-8.6H283
	C287.8,230.6,291.6,234.5,291.6,239.2z"/>
<path class="st8" d="M258.4,401.7v-52.9c0-4.7,3.8-8.6,8.6-8.6H283c4.7,0,8.6,3.8,8.6,8.6v52.9c0,4.7-3.8,8.6-8.6,8.6H267
	C262.2,410.3,258.4,406.4,258.4,401.7z"/>
<line class="st9" x1="322.8" y1="320.5" x2="291.6" y2="374.9"/>
<line class="st9" x1="388.7" y1="319.8" x2="356" y2="319.8"/>
<line class="st9" x1="510.5" y1="317.1" x2="421.3" y2="319.8"/>
<line class="st9" x1="291.6" y1="265.6" x2="322.6" y2="320.2"/>
<path class="st8" d="M421.3,293.2V346c0,4.7-3.8,8.6-8.6,8.6h-16.1c-4.7,0-8.6-3.8-8.6-8.6v-52.9c0-4.7,3.8-8.6,8.6-8.6h16.1
	C417.4,284.6,421.3,288.4,421.3,293.2z"/>
<path class="st8" d="M356,294v52.9c0,4.7-3.8,8.6-8.6,8.6h-16.1c-4.7,0-8.6-3.8-8.6-8.6V294c0-4.7,3.8-8.6,8.6-8.6h16.1
	C352.2,285.4,356,289.3,356,294z"/>
<ellipse class="st2" cx="175.4" cy="607.2" rx="17.5" ry="3"/>
<circle class="st11" cx="730.3" cy="557" r="1.1"/>
</svg>
