<?xml version="1.0" encoding="utf-8"?>
<!-- Generator: Adobe Illustrator 23.0.4, SVG Export Plug-In . SVG Version: 6.00 Build 0)  -->
<svg version="1.1" id="bca70d0a-57dd-451b-a82c-bb6927f27458"
	 xmlns="http://www.w3.org/2000/svg" xmlns:xlink="http://www.w3.org/1999/xlink" x="0px" y="0px" viewBox="0 0 798.7 647"
	 style="enable-background:new 0 0 798.7 647;" xml:space="preserve">
<style type="text/css">
	.st0{fill:#F2F2F2;}
	.st1{fill:#3F3D56;}
	.st2{opacity:0.3;fill:#FFC107;enable-background:new    ;}
	.st3{fill:#FFC107;}
	.st4{opacity:0.4;fill:#FFC107;enable-background:new    ;}
</style>
<title>predictive analytics</title>
<polygon class="st0" points="126.8,100 74,203 84.7,203 84.7,287 31,287 0,347.4 383.5,544 510.4,296.6 "/>
<rect x="115.7" y="167" class="st1" width="588" height="295"/>
<rect x="198.2" y="273" class="st2" width="434" height="1"/>
<rect x="198.7" y="298" class="st2" width="434" height="1"/>
<rect x="198.7" y="348" class="st2" width="434" height="1"/>
<rect x="198.7" y="370" class="st2" width="434" height="1"/>
<rect x="198.7" y="323" class="st2" width="434" height="1"/>
<polygon class="st3" points="210.7,370.7 209.3,369.3 273.9,307.7 330.9,348.7 376.9,297.6 397.1,314.8 452.1,281.8 513.1,322.8 
	608.8,268.4 609.8,270.1 513,325.2 452,284.2 396.9,317.2 377.1,300.4 331.2,351.3 274.1,310.3 "/>
<circle class="st4" cx="765.2" cy="153.5" r="33.5"/>
<circle class="st4" cx="703.2" cy="169.5" r="23.5"/>
<circle class="st4" cx="429.2" cy="539.5" r="12.5"/>
<circle class="st3" cx="608.2" cy="273.5" r="13"/>
<rect x="12.7" y="215" class="st1" width="64" height="64"/>
</svg>
