<?xml version="1.0" encoding="utf-8"?>
<!-- Generator: Adobe Illustrator 23.0.4, SVG Export Plug-In . SVG Version: 6.00 Build 0)  -->
<svg version="1.1" id="Layer_1" xmlns="http://www.w3.org/2000/svg" xmlns:xlink="http://www.w3.org/1999/xlink" x="0px" y="0px"
	 viewBox="0 0 975.3 825.2" style="enable-background:new 0 0 975.3 825.2;" xml:space="preserve">
<style type="text/css">
	.st0{opacity:0.1;fill:#FFC107;enable-background:new    ;}
	.st1{fill:#EAECF0;}
	.st2{fill:#D3DAE1;}
	.st3{opacity:0.1;enable-background:new    ;}
	.st4{fill:#D48A9B;}
	.st5{fill:#EFC6CD;}
	.st6{fill:#FFFFFF;}
	.st7{fill:#535461;}
	.st8{fill:#3A3768;}
	.st9{fill:#434175;}
	.st10{fill:#FFC107;}
	.st11{fill:#D5E1F4;}
</style>
<title>work time</title>
<ellipse class="st0" cx="91" cy="703.8" rx="41.4" ry="6.3"/>
<ellipse class="st0" cx="688.1" cy="712.4" rx="41.4" ry="6.3"/>
<ellipse class="st0" cx="586.1" cy="771.2" rx="41.4" ry="6.3"/>
<ellipse class="st0" cx="225.1" cy="656.4" rx="41.4" ry="6.3"/>
<ellipse class="st0" cx="237.5" cy="774" rx="237.5" ry="51.2"/>
<path class="st0" d="M942.2,568.9c-6.4,15.5-14.8,30.3-26.6,41.6c-14.3,13.8-32.2,21.4-51.2,25c-5.6,1-11.3,1.8-17,2.2
	c-15.1,1.2-30.5,0.4-45.3-1.2c-36.3-4-72-11.6-106.7-22.8c-5.7-1.8-11.4-3.8-17-5.8c-8.5-3-16.9-6.3-25.3-9.8
	c-34-14.2-69.2-32.3-105.3-26.7c-17.5,2.7-34,11-51.6,13.5c-12.3,1.6-24.9,0.7-36.8-2.6c-5.8-1.6-11.5-3.5-17-5.9
	c-12.4-5.4-24.3-12.1-35.3-20c-26.5-18.5-50.3-41.5-78.2-57.5c-30.8-17.7-64.8-26.1-99.5-32.4c-5.6-1-11.3-2-17-2.9
	c-16-2.6-32.1-5.1-48-8c-15.3-2.8-30.8-6.3-44.1-14.8c-9.5-6-17.5-14.4-24.8-23.3C82,401.1,70.4,383.3,61,364.3c-0.5-1-1-2-1.5-3
	c-14.7-30.1-24.6-63-30.6-97c-0.2-1-0.4-2-0.5-3c-5.7-33.3-7.8-67.8-7.1-102l0.1-3c0.4-16.9,1.4-33.7,3-50.3
	c1.1-11.7,2.6-23.8,8.7-33.6c6-9.8,15.9-16.1,25.7-21.3C102,28,143.5,21.6,190.1,32.8c7.5,1.8,14.9,3.7,22.4,5.7
	c5.7,1.5,11.3,3.1,17,4.7c39.1,10.9,78.2,22.5,118.6,26c3.9,0.3,7.8,0.6,11.7,0.8c7.7,0.4,15.5,0.4,23.2,0.2
	c19.9-0.6,39.8-2.6,59.4-6.1c5.7-1,11.3-2.1,17-3.3c24.4-5.1,48.6-11.9,72.4-19.4c4.9-1.5,9.7-3.1,14.6-4.7
	c10.9-3.6,21.8-7.2,32.8-10.8c32.7-10.6,65.5-20.3,99.3-24.2c2.9-0.3,5.8-0.6,8.7-0.9c2.8-0.2,5.5-0.4,8.3-0.6
	c52.5-2.8,105.5,9.8,152,35.7c5.8,3.2,11.4,6.6,17,10.2c7.7,5,15.2,10.4,22.4,16.2c14.8,11.9,28.7,25.3,39.3,41.5
	c10.3,15.8,17,33.5,20.8,52.2c0.2,1,0.4,2,0.6,3c5.7,30.1,3.9,62.4-2.4,92.5c-0.7,3.2-1.4,6.3-2.1,9.5c-0.2,1-0.5,2-0.7,3
	c-6.8,28.5-15.6,56.9-13.3,86.1c0.3,3.7,0.8,7.3,1.3,10.9c0.2,1,0.3,2,0.5,3c4.5,23.8,14.6,46.3,20.7,69.9
	C963,478.9,959.7,526.1,942.2,568.9z"/>
<path class="st0" d="M864.4,159.3h83.2c-0.2-1-0.4-2-0.6-3h-82.6V46.4c-5.6-3.6-11.2-7-17-10.2v120.1h-152V0.4
	c-2.8,0.1-5.5,0.3-8.3,0.6s-5.8,0.5-8.7,0.9v154.4h-217l-0.5-0.6L579.2,26c-10.9,3.5-21.9,7.2-32.8,10.8l-86.9,95.4V60.8
	c-5.7,1.2-11.3,2.3-17,3.3v71.3L383,70.2c-7.7,0.2-15.5,0.1-23.2-0.2l78.2,85.8l-0.5,0.6h-208V43.2c-5.7-1.6-11.3-3.2-17-4.7v117.8
	H21.3l-0.1,3h191.2v102H28.4c0.2,1,0.3,2,0.5,3h183.6v97H59.5c0.5,1,1,2,1.5,3h151.5v99.3c5.7,0.9,11.3,1.9,17,2.9V364.3h213v212
	c5.5,2.4,11.2,4.3,17,5.9V364.3h219v243.6c5.6,2,11.3,4,17,5.8V364.3h152v273.4c5.7-0.4,11.4-1.2,17-2.2V364.3h66.5
	c-0.2-1-0.4-2-0.5-3h-66v-97h77.9c0.2-1,0.5-2,0.7-3h-78.6V159.3z M847.4,159.3v102h-152v-102H847.4z M678.4,261.3h-219v-102h219
	V261.3z M229.4,159.3h210l3,2.7v99.3h-213V159.3z M229.4,361.3v-97h213v97H229.4z M459.4,361.3v-97h219v97H459.4z M847.4,361.3h-152
	v-97h152V361.3z"/>
<path class="st0" d="M774.4,89H773c0.9-0.5,1.6-1.5,1.6-2.6l0,0c0-2.1-2.5-3.8-5.6-3.8h-39.4c-3.1,0-5.6,1.7-5.6,3.8l0,0
	c0,2.1,2.5,3.8,5.6,3.8h1.3c-0.9,0.5-1.5,1.5-1.6,2.6c0,1.8,1.8,3.2,4.3,3.6h-11.4c-3.1,0-5.6,1.7-5.6,3.8s2.5,3.8,5.6,3.8h39.4
	c3.1,0,5.6-1.7,5.6-3.8c0-1.8-1.8-3.2-4.3-3.6h11.3c3.1,0,5.6-1.7,5.6-3.8S777.5,89,774.4,89z"/>
<path class="st0" d="M347.2,124.8h-1.3c0.9-0.6,1.5-1.5,1.6-2.6l0,0c0-2.1-2.5-3.8-5.6-3.8h-39.4c-3.1,0-5.6,1.7-5.6,3.8l0,0
	c0,2.1,2.5,3.8,5.6,3.8h1.3c-0.9,0.6-1.5,1.5-1.6,2.6c0,1.8,1.8,3.2,4.3,3.6h-11.3c-3.1,0-5.6,1.7-5.6,3.8s2.5,3.8,5.6,3.8h39.4
	c3.1,0,5.6-1.7,5.6-3.8c0-1.8-1.9-3.2-4.3-3.6h11.4c3.1,0,5.6-1.7,5.6-3.8S350.3,124.8,347.2,124.8z"/>
<path class="st0" d="M834.8,277.9h-1.3c0.9-0.6,1.5-1.5,1.6-2.6l0,0c0-2.1-2.5-3.8-5.6-3.8h-39.4c-3.1,0-5.6,1.7-5.6,3.8l0,0
	c0,2.1,2.5,3.8,5.6,3.8h1.3c-0.9,0.6-1.5,1.5-1.6,2.6c0,1.8,1.8,3.2,4.3,3.6h-11.4c-3.1,0-5.6,1.7-5.6,3.8s2.5,3.8,5.6,3.8h39.4
	c3.1,0,5.6-1.7,5.6-3.8c0-1.8-1.8-3.2-4.3-3.6h11.3c3.1,0,5.6-1.7,5.6-3.8S837.9,277.9,834.8,277.9z"/>
<polygon class="st1" points="227.4,601.5 688.1,653.2 688.1,667.9 226.2,614.4 "/>
<polygon class="st1" points="226.6,656 217.9,656 217.9,439 224.2,440.9 224.3,447.4 "/>
<polygon class="st2" points="230.5,652.5 226.6,656 224.3,447.4 224.2,440.9 228.8,440.9 228.8,447.8 "/>
<polygon class="st2" points="92.8,647 220.4,602.5 220.4,606.7 92.8,650.8 "/>
<polygon class="st1" points="95.1,660.9 92.8,650.8 220.4,606.7 220.4,615.5 "/>
<polygon class="st1" points="688.1,425.1 688.1,712 681.5,712 681.1,445.9 681.1,437.4 "/>
<polygon class="st2" points="693,423.7 693,709.6 688.1,712 688.1,425.1 "/>
<polygon class="st2" points="586.1,705.7 681.4,652.5 688.1,656.4 586.1,712 "/>
<polygon class="st1" points="589.1,723.9 586.1,712 688.1,656.4 688.1,667.9 "/>
<polygon class="st1" points="574.8,471 575.1,774 584.6,774 583.2,467.5 "/>
<polygon class="st2" points="589.1,464.7 589.1,771.5 584.6,774 583.2,467.5 583.7,467.2 "/>
<polygon class="st1" points="91.6,706.1 83.6,706.1 80.8,435.1 80.8,430.4 88.5,430.4 88.5,435.7 "/>
<polygon class="st2" points="97.2,704 91.6,706.1 88.5,435.7 88.5,430.4 94.4,430.4 94.5,436.2 "/>
<polygon class="st3" points="583.7,467.2 589.1,464.7 589.1,476.6 583.9,478.3 "/>
<polygon class="st3" points="693,423.7 693,441.9 688.1,443.6 681.1,445.9 681.1,437.4 688.1,425.1 "/>
<polygon class="st4" points="693,388.8 693,439.1 583.9,475.5 583.2,421.6 "/>
<polygon class="st5" points="79.4,385.2 222.8,358 693,388.8 583.2,421.6 "/>
<polygon class="st3" points="94.4,430.4 94.5,436.2 88.5,435.7 80.8,435.1 80.8,430.4 "/>
<polygon class="st3" points="228.8,447.8 224.3,447.4 217.9,446.9 217.9,439 224.2,440.9 228.8,440.9 "/>
<polygon class="st4" points="79.4,385.2 79.4,432.1 583.9,475.5 583.2,421.6 "/>
<polygon class="st4" points="479.4,441 413.5,441 413.5,417.1 479.4,421.7 "/>
<polygon class="st3" points="479.4,441 413.5,441 413.5,417.1 479.4,421.7 "/>
<polygon class="st3" points="325,411.9 325,449.6 577.9,468.9 577.9,428.6 479.2,423 469.5,431.8 429.2,429 414.9,418.5 "/>
<polygon class="st6" points="323.6,410.4 323.6,448.2 576.5,467.5 576.5,427.2 477.9,421.6 468.1,430.4 427.8,427.6 413.5,417.1 "/>
<polygon class="st4" points="167.5,400.3 227.4,404.5 226.6,423.5 187.6,423.5 161.5,413.2 "/>
<polygon class="st3" points="167.5,400.3 227.4,404.5 226.6,423.5 187.6,423.5 161.5,413.2 "/>
<polygon class="st3" points="87.8,395 87.8,429 317.3,447.2 317.3,411.1 228.8,405.9 219.3,412.9 183.6,410.8 168.9,401.7 "/>
<polygon class="st6" points="86.4,393.6 86.4,427.6 315.9,445.8 315.9,409.8 227.4,404.5 217.9,411.5 182.2,409.4 167.5,400.3 "/>
<polygon class="st3" points="96.7,649.5 98.2,648.9 97.4,660.1 96.7,660.4 "/>
<polygon class="st3" points="577.9,393.8 610.1,395.9 556.8,411.9 529.7,409.9 "/>
<polygon class="st6" points="577.9,392.4 610.1,394.5 556.8,410.4 529.7,408.5 "/>
<path class="st2" d="M574.1,396c1.3-0.5,2.6,0.5,4,0.7c0.8,0.1,1.6,0,2.3,0.1c1.6,0.2,3.2,1.3,4.7,0.7"/>
<path class="st2" d="M572.4,397c1.3-0.5,2.6,0.5,4,0.7c0.8,0.1,1.6,0,2.3,0.1c1.6,0.2,3.1,1.3,4.6,0.7"/>
<path class="st2" d="M568.6,398.9c1.3-0.5,2.6,0.5,4,0.7c0.8,0.1,1.6,0,2.3,0.1c1.6,0.2,3.1,1.3,4.6,0.7"/>
<circle class="st7" cx="50" cy="737.3" r="9.4"/>
<circle class="st7" cx="66.8" cy="774" r="9.4"/>
<circle class="st7" cx="234.3" cy="780.6" r="9.4"/>
<circle class="st7" cx="271.8" cy="732.7" r="9.4"/>
<rect x="154.1" y="571.4" class="st7" width="11.8" height="73.5"/>
<rect x="154.1" y="633" class="st3" width="11.8" height="11.9"/>
<rect x="151.8" y="635.8" class="st8" width="16.3" height="81.5"/>
<path class="st8" d="M269.7,716.8L163,712.4v17.2h123.9C284.3,722.2,277.5,717.1,269.7,716.8z"/>
<path class="st8" d="M56.3,716.8l106.7-4.4v17.2H39.2C41.7,722.2,48.5,717.1,56.3,716.8z"/>
<path class="st8" d="M151.8,714.2l-85.2,42c-7.4,3.6-12,11.1-12,19.3v1.3l99.5-43.4l14-1l82.7,52.8l0,0c1.1-8-2.4-15.9-8.9-20.5
	l-73.8-52.3L151.8,714.2z"/>
<path class="st3" d="M165.8,571.4v7.9c-2.1,0.1-4.2,0.1-6.3,0.1c-1.9,0-3.7,0-5.5-0.1v-8H165.8z"/>
<ellipse class="st8" cx="159.5" cy="564" rx="43.4" ry="12.7"/>
<path class="st3" d="M202.5,564c-0.1,1.4-0.8,2.8-1.9,3.7c-5.4,5.2-21.9,9-41.5,9c-19.2,0-35.4-3.6-41.2-8.7c-1.3-0.9-2.1-2.4-2.2-4
	c0-7,19.4-12.7,43.4-12.7S202.5,557,202.5,564z"/>
<path class="st3" d="M202.9,564c-0.1,1.4-0.8,2.8-1.9,3.7c-5.5-1.4-9.3-2.5-9.3-2.5s-38.2,2.1-73.4,2.9c-1.3-0.9-2.1-2.4-2.2-4
	c0-7,19.4-12.7,43.4-12.7S202.9,557,202.9,564z"/>
<path class="st8" d="M50,396.8c0,0,14.4,39.2,13.6,62.6S51.7,527,51.7,527s-11.2,35.7,17.5,38.8s122.5-2.1,122.5-2.1
	s35,10.5,46.2,5.9c4.4-1.8,8.1-5.6,11.1-9.7c6.6-9.1,4.7-21.8-4.4-28.4c-0.3-0.2-0.6-0.4-0.9-0.6c-5.2-3.3-10.9-5.7-16.9-7.2
	c-1.3-0.3-2.6-0.5-3.9-0.5l-122.3,2.4c0,0-13.6-2.1-11.2-15.7c2.4-13.6,6.6-55.6,6.6-55.6s0.7-51.1-23.8-65.4S50,396.8,50,396.8z"/>
<path class="st3" d="M50,396.7c0,0,14.4,39.2,13.6,62.6s-11.9,67.5-11.9,67.5s-11.2,35.7,17.5,38.8s122.5-2.1,122.5-2.1
	s35,10.5,46.2,6c4.4-1.8,8.1-5.7,11.1-9.7c6.6-9.1,4.7-21.8-4.4-28.5c-0.3-0.2-0.6-0.4-0.9-0.6c-5.2-3.2-10.9-5.7-16.9-7.2
	c-1.3-0.3-2.6-0.5-3.9-0.5l-122.3,2.4c0,0-13.6-2.1-11.2-15.8c2.4-13.7,6.6-55.6,6.6-55.6s0.7-51.1-23.8-65.4S50,396.7,50,396.7z"/>
<path class="st8" d="M52.8,395.4c0,0,14.4,39.2,13.6,62.6c-0.7,23.4-11.9,67.5-11.9,67.5S43.4,561.3,72,564.4s122.4-2.1,122.4-2.1
	s35,10.5,46.2,6c4.4-1.8,8.1-5.7,11.1-9.7c6.6-9.1,4.7-21.8-4.4-28.4c-0.3-0.2-0.6-0.4-0.9-0.6c-5.2-3.3-10.9-5.7-16.9-7.3
	c-1.3-0.3-2.6-0.5-3.9-0.5l-122.3,2.4c0,0-13.6-2.1-11.2-15.7c2.4-13.6,6.6-55.6,6.6-55.6s0.7-51.1-23.8-65.4S52.8,395.4,52.8,395.4
	z"/>
<path class="st9" d="M116.5,729.7l39.7,17.7c0,0,51.4,1.1,60.4-1.3s7-12.4-4.8-14.4s-14.6-7.2-18.5-9.6
	c-2.6-1.6-12.1-12.1-17.9-18.7c-2.8-3.2-4.8-5.5-4.8-5.5s-7.6-20.3-28.8-15.7c-3.9,0.8-7.4,2.7-10.3,5.5
	c-11.4,10.6-12.4,31.5-12.4,31.5L116.5,729.7z"/>
<path class="st3" d="M131.5,687.6c8.4,28.9,43.2,19.5,43.2,19.5l0.7-3.7c-2.8-3.2-4.8-5.5-4.8-5.5s-7.6-20.3-28.8-15.7
	C137.9,683,134.4,684.9,131.5,687.6z"/>
<path class="st3" d="M222.1,545.4c0,0-20.5,9.7-22.3,13.9S222.1,545.4,222.1,545.4z"/>
<path class="st3" d="M220.8,557.8c0,0-18.5,7.8-21,9.8S220.8,557.8,220.8,557.8z"/>
<polygon class="st8" points="431.8,339.6 431.8,378.8 394.4,375.8 394.4,339.6 "/>
<polygon class="st3" points="431.8,375.6 431.8,378.8 394.4,375.8 394.4,372.6 "/>
<path class="st8" d="M443.2,381.6l-58.2-3l0,0c0-3.1,2.6-5.7,5.7-5.7h0l46.8,3C440.7,375.9,443.2,378.4,443.2,381.6L443.2,381.6
	L443.2,381.6z"/>
<path class="st8" d="M514.4,350.4l-201.5-6c-3.4,0-6.1-2.7-6.1-6.1c0,0,0,0,0,0v-119c0-3.4,2.7-6.1,6.1-6.1c0,0,0,0,0,0l201.5,6
	c3.4,0,6.1,2.7,6.1,6.1v119C520.5,347.7,517.8,350.4,514.4,350.4L514.4,350.4z"/>
<polygon class="st10" points="515.5,341.7 311.3,335.7 311.3,228.5 515.5,234.5 "/>
<ellipse class="st6" cx="413.4" cy="222.9" rx="1.8" ry="1.8"/>
<polygon class="st3" points="431.8,347.1 394.4,346.5 394.4,347.7 431.8,347.7 "/>
<polygon class="st3" points="363.8,383.9 414.9,387.2 404,402.9 347.8,396.9 "/>
<polygon class="st8" points="362.8,382.9 413.9,386.2 403,401.9 346.8,395.9 "/>
<polygon class="st11" points="365.1,384 409.6,386.8 400.1,399.5 351.1,394.6 "/>
</svg>
