<?xml version="1.0" encoding="utf-8"?>
<!-- Generator: Adobe Illustrator 23.0.4, SVG Export Plug-In . SVG Version: 6.00 Build 0)  -->
<svg version="1.1" id="b33613f3-47b2-4fb7-9d5b-ca5c70d6619d"
	 xmlns="http://www.w3.org/2000/svg" xmlns:xlink="http://www.w3.org/1999/xlink" x="0px" y="0px" viewBox="0 0 863 826.7"
	 style="enable-background:new 0 0 863 826.7;" xml:space="preserve">
<style type="text/css">
	.st0{fill:#F2F2F2;}
	.st1{fill:#3F3D56;}
	.st2{opacity:0.1;enable-background:new    ;}
	.st3{fill:#2F2E41;}
	.st4{fill:#FFB9B9;}
	.st5{fill:#D0CDE1;}
	.st6{fill:#FFC107;}
</style>
<title>laravel and vue</title>
<path class="st0" d="M740.1,309.4C695.2,132.8,540,5.3,357.8,0.2c-96.3-2.7-197.7,29.2-271.4,141C-45.5,341,94.5,479,192.1,544.7
	c47.2,31.8,89.6,70,126.2,113.5c65.9,78.2,192.8,175.5,343.8,23.1C771.6,570.8,770,427,740.1,309.4z"/>
<path class="st1" d="M862,702.7c0,43.4-189.2,124-427.5,124S0,751.1,0,707.7s196.2-38,434.5-38S862,659.4,862,702.7z"/>
<path class="st2" d="M862,702.7c0,43.4-189.2,124-427.5,124S0,751.1,0,707.7s196.2-38,434.5-38S862,659.4,862,702.7z"/>
<ellipse class="st1" cx="431.5" cy="707.2" rx="431.5" ry="78.5"/>
<polygon class="st3" points="594.9,440.2 594.9,650.2 630,707.4 632.6,711.8 771.2,711.8 774,440.2 "/>
<polygon class="st2" points="594.9,440.2 594.9,650.2 630,707.4 632.1,440.2 "/>
<polygon class="st3" points="260.3,434.6 260.3,644.6 225.2,701.8 222.6,706.2 84,706.2 81.2,434.6 "/>
<polygon class="st2" points="260.3,434.6 260.3,644.6 225.2,701.8 223.1,434.6 "/>
<polygon class="st3" points="816,430.4 816,443 63,443 63,424.8 133,388.5 754.4,388.5 "/>
<polygon class="st2" points="816,430.4 816,443 63,443 63,424.8 "/>
<polygon class="st2" points="170.8,493.4 137.2,493.4 123.2,483.6 186.2,483.6 "/>
<polygon class="st2" points="170.8,534 137.2,534 123.2,524.2 186.2,524.2 "/>
<polygon class="st2" points="170.8,591.4 137.2,591.4 123.2,581.6 186.2,581.6 "/>
<polygon class="st2" points="170.8,648.8 137.2,648.8 123.2,639 186.2,639 "/>
<polygon class="st2" points="684.4,499 718,499 732,489.2 669,489.2 "/>
<polygon class="st2" points="684.4,539.6 718,539.6 732,529.8 669,529.8 "/>
<polygon class="st2" points="684.4,597 718,597 732,587.2 669,587.2 "/>
<polygon class="st2" points="684.4,654.4 718,654.4 732,644.6 669,644.6 "/>
<path class="st1" d="M532.5,353.4l-4.7,29.8c0,0-23,12.2-6.8,12.6s92.3,0,92.3,0s14.7,0-8.6-12.9l-4.7-31.2L532.5,353.4z"/>
<path class="st2" d="M517.8,395.5c3.1-2.5,6.5-4.8,10.1-6.7l4.7-29.8l67.5,0.1l4.7,29.4c3.8,2,7.5,4.4,10.8,7.1
	c3-0.7,6.3-3.2-10.8-12.7l-4.7-31.2l-67.5,1.8l-4.7,29.8C527.8,383.2,508.5,393.5,517.8,395.5z"/>
<path class="st1" d="M424.5,145.7h282.8c5.9,0,10.7,4.8,10.7,10.7v190.5c0,5.9-4.8,10.7-10.7,10.7H424.5c-5.9,0-10.7-4.8-10.7-10.7
	V156.4C413.8,150.5,418.6,145.7,424.5,145.7z"/>
<rect x="424.1" y="157" class="st0" width="283.7" height="158.7"/>
<circle class="st0" cx="565.9" cy="152" r="1.8"/>
<path class="st1" d="M718,328.3v18.6c0,5.9-4.8,10.7-10.7,10.7c0,0,0,0,0,0H424.5c-5.9,0-10.7-4.8-10.7-10.7c0,0,0,0,0,0v-18.6H718z
	"/>
<circle class="st0" cx="565.9" cy="343" r="6.8"/>
<polygon class="st1" points="555.3,415.2 555.3,418.8 362.1,418.8 362.1,415.9 362.3,415.2 367.1,402.3 551.3,402.3 "/>
<path class="st1" d="M629.6,411.7c-0.4,1.5-1.7,3.1-4.7,4.6c-10.8,5.4-32.7-1.4-32.7-1.4s-16.9-2.9-16.9-10.4c0.5-0.3,1-0.6,1.5-0.9
	c4.5-2.4,19.5-8.3,46.2,0.3c2,0.6,3.7,1.8,5.1,3.3C629.3,408.3,629.9,410,629.6,411.7z"/>
<path class="st2" d="M629.6,411.7c-13.2,5.1-24.9,5.4-37-2.9c-6.1-4.2-11.6-5.3-15.8-5.2c4.5-2.4,19.5-8.3,46.2,0.3
	c2,0.6,3.7,1.8,5.1,3.3C629.3,408.3,629.9,410,629.6,411.7z"/>
<ellipse class="st0" cx="613.1" cy="407.3" rx="4.7" ry="1.4"/>
<polygon class="st2" points="555.3,415.2 555.3,418.8 362.1,418.8 362.1,415.9 362.3,415.2 "/>
<circle class="st4" cx="394.6" cy="155.9" r="38.2"/>
<path class="st4" d="M366.5,175v60.4h62.4c0,0-8.1-50.3-4-65.4L366.5,175z"/>
<path class="st5" d="M490.3,256.5c0,0-59.4-29.2-59.4-31.2s-6-15.1-10.1-15.1s-38.2-11.1-57.4,5l-2,13.1L288,276.7l20.1,73.5
	c0,0,13.1,14.1,9.1,24.2s3,61.4,3,61.4l158-5v-68.4c0,0,5-16.1,8.1-21.1s0-20.1,0-20.1l24.2-30.2
	C510.4,290.8,507.4,262.6,490.3,256.5z"/>
<path class="st2" d="M290.5,301.3l4.5-24.7c0,0-26.2,113.7-23.1,126.8s25.2,33.2,28.2,34.2s31.2-86.6,31.2-86.6L290.5,301.3z"/>
<path class="st5" d="M305.1,273.7l-17.1,3c0,0-26.2,113.7-23.1,126.8s25.2,33.2,28.2,34.2s31.2-86.6,31.2-86.6L305.1,273.7z"/>
<path class="st2" d="M495.8,307.4l8.6-16.6c0,0,12.1,113.7,4,124.8s-39.9,15.2-39.9,15.2l-0.4-82.6L495.8,307.4z"/>
<path class="st5" d="M497.3,277.7l13.1,13.1c0,0,12.1,113.7,4,124.8s-39.9,15.2-39.9,15.2l-0.4-82.6L497.3,277.7z"/>
<path class="st1" d="M302,450.8c0,0-29.2-11.1-34.2,10.1s12.1,115.7,12.1,115.7s11.1,71.5,18.1,73.5s38.2,3,43.3-6
	s-15.1-101.7-15.1-101.7l116.8-2c0,0-7,80.5-11.1,87.6s-4,31.2,0,31.2s48.3-2,51.3-8.1s20.1-141.9,20.1-141.9s14.1-47.3-2-44.3
	S302,450.8,302,450.8z"/>
<path class="st3" d="M474.2,647.1c0,0,10.1-7,15.1,0s7,15.1-15.1,27.2s-39.3,9.1-39.3,7v-29.2L474.2,647.1z"/>
<path class="st3" d="M300,644c0,0-10.1-7-15.1,0s-7,15.1,15.1,27.2s39.3,9.1,39.3,7v-29.2L300,644z"/>
<path class="st3" d="M394.9,107.7c-3.8-0.1-7.6,0.4-11.2,1.6c-2.8,1.1-5.5,2.5-8,4.2L358.8,124c-2.9,1.3-4.8,4.2-4.8,7.4l-2.1,15.8
	c-0.5,4-1,8.3,0.8,11.9c1.5,3,4.3,5.1,6.7,7.5c3.7,3.9,6.3,8.8,7.2,14.1c1.2,6.6,0.4,14.5,5.7,18.8c2.8,2.3,6.7,2.7,10.3,2.9
	c9.9,0.6,19.9,0.2,29.7-1.1c1.6-0.1,3.1-0.5,4.5-1.3c1.8-1,2.9-2.9,3.9-4.7c3.8-6.4,7.7-13.2,7.6-20.7c0-3.7-1-7.6,0.8-10.9
	c0.9-1.4,1.9-2.7,3-3.9c2.2-3.1,2.6-7,3-10.8c1.1-12-0.1-21.1-8.9-29.6C417.9,111.4,406.2,107.7,394.9,107.7z"/>
<polygon class="st3" points="300.9,569.7 267.3,740.5 284.1,740.5 316.3,572.5 "/>
<polygon class="st3" points="408.7,583.7 429.7,779.6 443.7,779.6 431.1,578.1 "/>
<polygon class="st3" points="466.1,578.1 495.5,708.3 509.5,708.3 481.5,575.3 "/>
<polygon class="st3" points="354.1,578.1 349.9,681.7 361.1,681.7 369.5,578.1 "/>
<path class="st6" d="M277.1,551.5c0,0-22.4-149.8,40.6-154s152.6,0,152.6,0s51.8-4.2,36.4,154c0,0,14,46.2-112,42
	S277.1,551.5,277.1,551.5z"/>
<path class="st6" d="M851,612.7c0,26.1-15.5,35.2-34.7,35.2s-34.7-9.1-34.7-35.2s34.7-59.3,34.7-59.3S851,586.5,851,612.7z"/>
<polygon class="st1" points="815.4,622 830.2,595 815.5,618.6 815.6,608.8 825.8,589.2 815.7,606.2 816,588.5 826.9,572.9 
	816,585.7 816.2,553.3 815.1,594.4 804.1,577.5 815,597.9 813.9,617.6 813.9,617.1 801.1,599.2 813.9,618.9 813.7,621.4 
	813.7,621.4 813.7,621.6 811.1,648 814.6,648 815,645.8 827.7,626.2 815.1,643.9 "/>
<polygon class="st3" points="838.5,704.5 797.1,704.5 786.4,644.2 846.8,644.2 "/>
<rect x="145" y="296.3" class="st1" width="86" height="100.8"/>
<rect x="158.3" y="311.9" class="st0" width="59.3" height="69.5"/>
</svg>
