<?xml version="1.0" encoding="utf-8"?>
<!-- Generator: Adobe Illustrator 23.0.4, SVG Export Plug-In . SVG Version: 6.00 Build 0)  -->
<svg version="1.1" id="e87ddc62-7528-42a5-8b37-f74ed0351019"
	 xmlns="http://www.w3.org/2000/svg" xmlns:xlink="http://www.w3.org/1999/xlink" x="0px" y="0px" viewBox="0 0 1131 812.2"
	 style="enable-background:new 0 0 1131 812.2;" xml:space="preserve">
<style type="text/css">
	.st0{opacity:0.3;fill:#FFC107;enable-background:new    ;}
	.st1{fill:none;stroke:#3F3D56;stroke-miterlimit:10;}
	.st2{fill:#FFC107;}
	.st3{fill:#F2F2F2;}
	.st4{fill:#47465A;}
	.st5{opacity:0.1;enable-background:new    ;}
	.st6{fill:#7A799C;}
	.st7{fill:#9493B6;}
</style>
<title>software engineer</title>
<rect x="689.3" y="51.3" class="st0" width="80.8" height="30.1"/>
<rect x="823.6" class="st0" width="80.8" height="30.1"/>
<rect x="829.2" y="93.1" class="st0" width="80.8" height="30.1"/>
<rect x="570.6" y="127.6" class="st0" width="80.8" height="30.1"/>
<rect x="545" y="251.3" class="st0" width="80.8" height="30.1"/>
<rect x="667" y="248.5" class="st0" width="80.8" height="30.1"/>
<polyline class="st1" points="823.6,14.9 770.1,65.6 829.2,108.1 "/>
<line class="st1" x1="689.3" y1="65.6" x2="611" y2="127.6"/>
<polyline class="st1" points="585.4,251.3 611,157.7 707.4,248.5 "/>
<rect x="144.3" y="82.3" class="st0" width="80.8" height="30.1"/>
<rect x="278.6" y="31" class="st0" width="80.8" height="30.1"/>
<rect x="284.2" y="124.1" class="st0" width="80.8" height="30.1"/>
<rect x="25.6" y="158.6" class="st0" width="80.8" height="30.1"/>
<rect y="282.3" class="st0" width="80.8" height="30.1"/>
<rect x="122" y="279.5" class="st0" width="80.8" height="30.1"/>
<polyline class="st1" points="278.6,45.9 225.1,96.6 284.2,139.1 "/>
<line class="st1" x1="144.3" y1="96.6" x2="66" y2="158.6"/>
<polyline class="st1" points="40.4,282.3 66,188.7 162.4,279.5 "/>
<line class="st1" x1="365" y1="139.1" x2="456.6" y2="139.1"/>
<rect x="415.5" y="123.7" class="st2" width="95" height="30"/>
<line class="st1" x1="510.6" y1="138.7" x2="570.6" y2="138.7"/>
<line class="st1" x1="415" y1="138.7" x2="359.4" y2="45.9"/>
<ellipse class="st3" cx="691" cy="714.2" rx="440" ry="98"/>
<polygon class="st4" points="895,391.6 852.1,606.6 842.8,606.6 841.8,605 838.8,600.4 876,399.6 881.6,397.2 "/>
<polygon class="st5" points="881.6,397.2 841.8,605 838.8,600.4 876,399.6 "/>
<polygon class="st4" points="959.6,684.4 948.5,688 945.9,688.9 942.3,680.9 881.6,404 887.9,402.5 901.2,399.6 "/>
<polygon class="st5" points="948.5,688 945.9,688.9 942.3,680.9 881.6,404 887.9,402.5 "/>
<polygon class="st4" points="433.6,391.6 423.9,670.3 412.8,672.8 412,672.9 408.9,667.2 415.1,394.3 421,393.4 "/>
<polygon class="st5" points="421,393.4 412.8,672.8 412,672.9 408.9,667.2 415.1,394.3 "/>
<polygon class="st4" points="491.6,768.9 480,770.9 478.8,771.1 475.2,763.6 419,399.6 420.7,399.1 429.2,396.5 "/>
<polygon class="st5" points="480,770.9 478.8,771.1 475.2,763.6 419,399.6 420.7,399.1 "/>
<path class="st6" d="M735.7,369.1l43,54.9c3,3.8,7.8,5.8,12.6,5.2l176.3-20.6c7-0.8,12.3-6.8,12.3-13.8V354L735.7,369.1z"/>
<path class="st4" d="M880.4,377.9h11.9l0,0v17.2c0,2.5-2,4.4-4.4,4.4l0,0h-3.1c-2.5,0-4.4-2-4.4-4.4l0,0L880.4,377.9L880.4,377.9z"
	/>
<path class="st6" d="M419,404l43,54.9c3,3.8,7.8,5.8,12.6,5.2l176.3-20.6c7-0.8,12.3-6.8,12.3-13.8V389L419,404z"/>
<path class="st4" d="M563.7,412.8h11.9l0,0v17.2c0,2.5-2,4.4-4.4,4.4l0,0h-3.1c-2.5,0-4.4-2-4.4-4.4l0,0V412.8L563.7,412.8z"/>
<path class="st4" d="M468.4,431.8l524.5-61.1c4.2-0.5,7.3-4.3,6.8-8.6c-0.3-2.6-1.9-4.8-4.2-6L901.6,309
	c-18.5-9.3-39.2-13.1-59.8-11l-465.9,47.5c-4.9,0.5-8.5,4.9-7.9,9.8c0.2,2,1.1,3.9,2.5,5.3l54.3,55.7
	C436,427.9,452.2,433.6,468.4,431.8z"/>
<path class="st4" d="M1050.5,362.4l-5.6-3.1c0,0-6.1,4.5-11,23.2s9.2,0.2,9.2,0.2l6.2-12.8L1050.5,362.4z"/>
<path class="st4" d="M990.5,534.5c0,0-5.8,27-8.4,34.5c-1.3,3.7-7.6,7-14.5,9.6c-6.2,2.3-12.6,4-19.1,5
	c-7.5,0.9-103.9-14.2-150.8-24.3c-31.6-6.9-35.7-14.7-35-19.1c0.2-1.3,0.9-2.5,1.8-3.5c0,0,46.4-31.4,62.8-46.4s48.7-3.1,84,3.1
	S990.5,534.5,990.5,534.5z"/>
<path class="st4" d="M1044.9,359.3c0,0,21.7,14.2-51.3,43.3c0,0-39.7,22.4-34.5,114.5c0.2,4.1,1.5,8.2,3.7,11.7
	c7.5,12.4,23.7,43.7-3.2,47.6v7.1c0,0,48.7-24.3,54-45.1s23-136.2,31.8-146.9S1060,364.2,1044.9,359.3z"/>
<path class="st5" d="M967.6,578.6c-6.2,2.3-12.6,4-19.1,5c-7.5,0.9-103.9-14.2-150.8-24.3c-31.6-6.9-35.7-14.7-35-19.1
	c20.8,7.1,88.2,29.6,112.4,31.5c28.8,2.2,83.7,8.4,87.8,4.2C964.5,574.2,966.2,575.9,967.6,578.6z"/>
<path class="st4" d="M715,762.7l42-192c0,0,7.5-20.3,24.8-19.5l15.9,8c0,0-26.5-6.2-32.3,14.2s-42.5,189.3-42.5,189.3H715z"/>
<polygon class="st4" points="815.8,675.1 832.6,557.9 840.1,557.9 822.9,675.1 "/>
<path class="st4" d="M976.8,789.7l-15.9-183.1c0,0,0-15.5,8-23s33.7-29,33.7-29s6.6-1.6,11.9,13.5s42,165.4,42,165.4l-7.1,3.1
	l-45.6-173.4l-31.4,29.6c0,0-6.2,11.1-3.1,21.2s14.6,175.6,14.6,175.6H976.8z"/>
<polygon class="st4" points="927.7,579.2 967.5,590.7 976.4,582.3 953.4,579.2 "/>
<path class="st6" d="M573.8,256.3l6.5,96.8l141.1-13.7l-5.6-94.6c-0.3-5.2-4.8-9.3-10.1-8.9c-0.1,0-0.2,0-0.2,0l-122.9,10.3
	C577.3,246.6,573.5,251.1,573.8,256.3z"/>
<polygon class="st6" points="768.7,367.3 628,382.6 622.7,383.2 581.6,356.7 581.6,350.9 721.4,338.3 "/>
<polygon class="st5" points="628,382.6 622.7,383.2 581.6,356.7 581.6,351.5 "/>
<polygon class="st7" points="583.4,255.4 588.2,341.6 712.1,330.1 707.7,246.1 "/>
<polygon class="st5" points="657.2,365.5 672.3,375.7 717.8,371.3 702.3,361.5 "/>
<polygon class="st7" points="595.7,353.1 614.8,367.3 736.4,355.8 714.7,341.6 "/>
</svg>
