<?xml version="1.0" encoding="utf-8"?>
<!-- Generator: Adobe Illustrator 23.0.4, SVG Export Plug-In . SVG Version: 6.00 Build 0)  -->
<svg version="1.1" id="bcfca5f0-de0d-458d-b0e1-91947ae777e0"
	 xmlns="http://www.w3.org/2000/svg" xmlns:xlink="http://www.w3.org/1999/xlink" x="0px" y="0px" viewBox="0 0 1051.2 697.2"
	 style="enable-background:new 0 0 1051.2 697.2;" xml:space="preserve">
<style type="text/css">
	.st0{opacity:0.1;fill:#FFC107;enable-background:new    ;}
	.st1{fill:#FFFFFF;stroke:#33313F;stroke-width:3;stroke-miterlimit:10;}
	.st2{fill:#FFFFFF;stroke:#33313F;stroke-width:2;stroke-miterlimit:10;}
	.st3{fill:none;stroke:#33313F;stroke-width:3;stroke-miterlimit:10;}
</style>
<title>user flow</title>
<path class="st0" d="M602,133c-64.7-2.2-126.4-23.1-185.2-46S299.6,38.8,236.5,26.7c-40.6-7.8-87.1-8.9-119.8,12.9
	c-31.5,21-41.7,57.1-47.2,90.7c-4.1,25.3-6.5,51.8,4.8,75.5c7.8,16.4,21.7,30.2,31.4,46c33.5,54.7,9.8,122.2-26.5,175.6
	c-17,25.1-36.7,49-49.9,75.7s-19.2,57.2-7.7,84.5c11.4,27,38.5,47.2,67.9,61.5c59.7,29,130,37.2,198.6,41.9
	c151.8,10.4,304.5,5.9,456.7,1.4c56.3-1.7,112.9-3.4,168.3-12.1c30.8-4.8,62.6-12.5,84.9-31c28.4-23.5,35.4-63.4,16.4-92.9
	c-31.9-49.5-120-61.8-142.3-114.9c-12.3-29.2,0.3-61.8,18.2-88.9c38.2-58.2,102.3-109.2,105.7-175.7c2.3-45.7-28.5-91.4-76.1-113
	c-49.9-22.6-119.2-19.8-156,17.7C725.8,120.1,659.1,135,602,133z"/>
<path class="st1" d="M123.7,202.8c0,0,172.5,7,196,0c0,0-12.9,288.7-8.2,298.1c0,0-191.3,10.6-205.4,0S123.7,202.8,123.7,202.8z"/>
<path class="st1" d="M149.5,256.8c0,0,79.8,126.7,106.8,138.5"/>
<path class="st1" d="M256.3,256.8c0,0-76.3,99.7-88,133.8"/>
<path class="st1" d="M149.5,443.3"/>
<path class="st1" d="M249.3,443.3h-92.7c-7,0-7,32.9-7,32.9h99.7V443.3z"/>
<path class="st1" d="M447.6,202.8c0,0,165.5-8.2,196,0c0,0-12.9,288.7-8.2,298.1c0,0-211.4,16.5-205.4,0
	C442.9,465.6,447.6,202.8,447.6,202.8z"/>
<path class="st1" d="M512.1,224.8c0,0,36.8,58.5,49.3,63.9"/>
<path class="st1" d="M561.3,224.8c0,0-35.2,46-40.6,61.7"/>
<path class="st1" d="M603.4,326H479c-9.4,0-9.4,32.9-9.4,32.9h133.8V326z"/>
<path class="st1" d="M586.4,430.4h-92.7c-7,0-7,32.9-7,32.9h99.7V430.4z"/>
<path class="st1" d="M603.4,374.1c9.4,0-113.4,10.6-124.4,0c-5.8-5.6-9.4,32.9-9.4,32.9h133.8V374.1z"/>
<polyline class="st1" points="524.5,446.3 531.5,453.3 544.4,435.7 "/>
<path class="st1" d="M763.2,205.1c0,0,164.3,19.9,196,0c0,0-12.9,288.7-8.2,298.1c0,0-218,12.2-205.4,0
	C777.3,472.7,763.2,205.1,763.2,205.1z"/>
<path class="st1" d="M786.1,256.2c0,0,23.7,37.6,31.7,41.1"/>
<path class="st1" d="M817.7,256.2c0,0-22.6,29.6-26.1,39.7"/>
<path class="st1" d="M921.4,333.6H797c-9.4,0-9.4,17.4-9.4,17.4h133.8V333.6z"/>
<path class="st1" d="M853.6,385.3h64.8c9.4,0,9.4,17.4,9.4,17.4h0.3"/>
<path class="st1" d="M921.4,359.1c9.4,0-113.4,5.6-124.4,0c-5.8-2.9-9.4,17.4-9.4,17.4h133.8V359.1z"/>
<path class="st1" d="M764.2,227.1c0,0,182.1,13.5,193.8,4.5"/>
<path class="st2" d="M935.1,218.8c2.5-0.5,5,0.2,7.6,0.6c2.5,0.4,5.4,0.3,7.2-1.4"/>
<path class="st2" d="M933.9,223.5c5.3,0.9,10.6,1.2,15.9,0.9"/>
<path class="st2" d="M933.9,230c4.5-0.8,9.1-1.3,13.6-1.5"/>
<path class="st2" d="M774.5,221.3c2.2,1,4.6,1.5,7,1.4c1.5,0.2,3.1-0.1,4.4-1c1.5-1.2,1.7-3.5,1.7-5.5c0-0.6,0-1.2-0.3-1.8
	c-0.3-0.5-0.7-1-1.3-1.3c-2.9-2-8.3-2.8-11.7-1.5C769.7,213.6,770.5,219.1,774.5,221.3z"/>
<path class="st1" d="M826.4,248.8c-0.7,8.7,1.4,17.3,2.8,25.9c1.8,10.9,2.5,21.9,2.1,32.9c-18.5,1.1-37.1,1.4-55.6,0.8
	c1.7,0.1,1.3-39.2,1.5-42.9c0.2-4.6-0.8-12.6,4.6-14.3c5.6-1.8,13.6-0.7,19.5-1C809.6,249.9,818,249.4,826.4,248.8z"/>
<path class="st3" d="M346.7,337.7c0,0,45.8-2.3,54,0"/>
<path class="st3" d="M400.6,313.1c0,0,19.9,19.9,19.9,24.6s-25.8,21.1-25.8,21.1"/>
<path class="st3" d="M663.5,337.7c0,0,45.8-2.3,54,0"/>
<path class="st3" d="M717.5,313.1c0,0,19.9,19.9,19.9,24.6s-25.8,21.1-25.8,21.1"/>
<circle class="st0" cx="377.3" cy="21.6" r="21.6"/>
<circle class="st0" cx="706.4" cy="51.5" r="21.6"/>
<circle class="st0" cx="937.6" cy="371.9" r="21.6"/>
<ellipse transform="matrix(0.1602 -0.9871 0.9871 0.1602 580.4304 1233.2142)" class="st0" cx="1015" cy="275.5" rx="36.2" ry="36.2"/>
<circle class="st0" cx="967" cy="451.4" r="36.2"/>
<circle class="st0" cx="36.2" cy="338.1" r="36.2"/>
</svg>
