<?xml version="1.0" encoding="utf-8"?>
<!-- Generator: Adobe Illustrator 21.0.2, SVG Export Plug-In . SVG Version: 6.00 Build 0)  -->
<svg version="1.1" id="Layer_1" xmlns="http://www.w3.org/2000/svg" xmlns:xlink="http://www.w3.org/1999/xlink" x="0px" y="0px"
	 viewBox="0 0 100 100" style="enable-background:new 0 0 100 100;" xml:space="preserve">
<path d="M88,15c-3.9,0-7,3.1-7,7c0,1.8,0.7,3.5,1.8,4.7L65.6,56.5C64.8,56.2,63.9,56,63,56c-1.8,0-3.4,0.7-4.7,1.8L39.8,45.8
	c0.1-0.6,0.2-1.2,0.2-1.8c0-3.9-3.1-7-7-7s-7,3.1-7,7c0,1.6,0.6,3.1,1.5,4.3l-13.6,23C13.3,71.1,12.7,71,12,71c-3.9,0-7,3.1-7,7
	s3.1,7,7,7s7-3.1,7-7c0-1.8-0.7-3.4-1.7-4.6l13.5-22.8c0.7,0.2,1.5,0.4,2.2,0.4c1.8,0,3.4-0.7,4.7-1.8l18.5,12.1
	C56.1,61.8,56,62.4,56,63c0,3.9,3.1,7,7,7s7-3.1,7-7c0-1.5-0.5-2.9-1.3-4l17.5-30.2c0.6,0.1,1.1,0.2,1.7,0.2c3.9,0,7-3.1,7-7
	S91.9,15,88,15z M12,81c-1.7,0-3-1.3-3-3s1.3-3,3-3s3,1.3,3,3S13.7,81,12,81z M33,47c-1.7,0-3-1.3-3-3s1.3-3,3-3s3,1.3,3,3
	S34.7,47,33,47z M63,66c-1.7,0-3-1.3-3-3s1.3-3,3-3s3,1.3,3,3S64.7,66,63,66z M88,25c-1.7,0-3-1.3-3-3s1.3-3,3-3s3,1.3,3,3
	S89.7,25,88,25z"/>
</svg>
