<?xml version="1.0" encoding="utf-8"?>
<!-- Generator: Adobe Illustrator 23.0.4, SVG Export Plug-In . SVG Version: 6.00 Build 0)  -->
<svg version="1.1" id="a37f41ca-a9f0-4efa-9f9e-7b2dee25605c"
	 xmlns="http://www.w3.org/2000/svg" xmlns:xlink="http://www.w3.org/1999/xlink" x="0px" y="0px" viewBox="0 0 637.5 720.4"
	 style="enable-background:new 0 0 637.5 720.4;" xml:space="preserve">
<style type="text/css">
	.st0{fill:url(#SVGID_1_);}
	.st1{fill:#FFFFFF;}
	.st2{fill:#FAFAFA;}
	.st3{fill:#DBDBDB;}
	.st4{fill:url(#SVGID_2_);}
	.st5{opacity:0.8;}
	.st6{fill:none;stroke:#FFC107;stroke-width:2;stroke-miterlimit:10;}
	.st7{fill:none;stroke:#FFC107;stroke-width:2;stroke-miterlimit:10;stroke-dasharray:9.2972,9.2972;}
	.st8{fill:none;stroke:#FFC107;stroke-width:2;stroke-miterlimit:10;stroke-dasharray:13.5459,13.5459;}
	.st9{fill:none;stroke:#FFC107;stroke-width:2;stroke-miterlimit:10;stroke-dasharray:12;}
	.st10{fill:none;stroke:#3AD29F;stroke-width:2;stroke-miterlimit:10;stroke-dasharray:12;}
	.st11{opacity:0.5;fill:#F55F44;enable-background:new    ;}
</style>
<title>Design process</title>
<linearGradient id="SVGID_1_" gradientUnits="userSpaceOnUse" x1="438.7587" y1="525.3323" x2="438.7587" y2="189.8721" gradientTransform="matrix(0.9847 -0.1741 0.1741 0.9847 -365.7505 -45.8725)">
	<stop  offset="0" style="stop-color:#808080;stop-opacity:0.25"/>
	<stop  offset="0.5351" style="stop-color:#808080;stop-opacity:0.12"/>
	<stop  offset="1" style="stop-color:#808080;stop-opacity:0.1"/>
</linearGradient>
<path class="st0" d="M14.8,79.7l169.1-29.9c3.8-0.7,7.5,1.9,8.2,5.8L248,371.9c0.7,3.8-1.9,7.5-5.8,8.2L73.2,410
	c-3.8,0.7-7.5-1.9-8.2-5.8L9.1,87.9C8.4,84,11,80.3,14.8,79.7L14.8,79.7z"/>
<path class="st1" d="M23,82.8l154.2-27.3c6.5-1.2,12.8,3.2,14,9.8l52.6,297.5c1.2,6.5-3.2,12.8-9.8,14L79.8,404.1
	c-6.5,1.2-12.8-3.2-14-9.8L13.3,96.8C12,90.2,16.4,84,23,82.8z"/>
<path class="st2" d="M146.3,69.3c0.2,7.3-4.9,13.5-12.1,14.8L72.7,95c-7.2,1.3-14.1-2.9-16.4-9.8L23.8,91c-3.8,0.7-6.2,4.2-5.5,7.9
	l0,0l51.6,291.7c0.7,3.8,4.2,6.2,7.9,5.5l0,0l155.6-27.5c3.8-0.7,6.2-4.2,5.5-7.9l0,0L187.3,69c-0.7-3.8-4.2-6.2-7.9-5.5l0,0
	L146.3,69.3z"/>
<path class="st3" d="M83.9,84.3l37.2-6.6c0.7-0.1,1.3,0.3,1.4,1l0,0c0.1,0.7-0.3,1.3-1,1.4l-37.2,6.6c-0.7,0.1-1.3-0.3-1.4-1l0,0
	C82.7,85.1,83.2,84.4,83.9,84.3z"/>
<circle class="st3" cx="130.9" cy="77.1" r="1.5"/>
<linearGradient id="SVGID_2_" gradientUnits="userSpaceOnUse" x1="796.8312" y1="680.6921" x2="796.8312" y2="345.2319" gradientTransform="matrix(0.9847 -0.1741 0.1741 0.9847 -365.7505 -45.8725)">
	<stop  offset="0" style="stop-color:#808080;stop-opacity:0.25"/>
	<stop  offset="0.5351" style="stop-color:#808080;stop-opacity:0.12"/>
	<stop  offset="1" style="stop-color:#808080;stop-opacity:0.1"/>
</linearGradient>
<path class="st4" d="M394.5,170.3l169.1-29.9c3.8-0.7,7.5,1.9,8.2,5.8l0,0l55.9,316.4c0.7,3.8-1.9,7.5-5.8,8.2l0,0l-169.1,29.9
	c-3.8,0.7-7.5-1.9-8.2-5.8l-55.9-316.4C388.1,174.7,390.6,171,394.5,170.3L394.5,170.3z"/>
<path class="st1" d="M402.7,173.5l154.2-27.3c6.5-1.2,12.8,3.2,14,9.8l52.6,297.5c1.2,6.5-3.2,12.8-9.8,14l-154.2,27.3
	c-6.5,1.2-12.8-3.2-14-9.8l-52.6-297.4C391.8,180.9,396.1,174.6,402.7,173.5z"/>
<path class="st2" d="M525.9,160.1c0.2,7.3-4.9,13.5-12.1,14.8l-61.5,10.9c-7.2,1.3-14.1-2.9-16.4-9.8l-32.6,5.8
	c-3.8,0.7-6.2,4.2-5.5,7.9l0,0l51.6,291.7c0.7,3.8,4.2,6.2,7.9,5.5l0,0L613,459.3c3.8-0.7,6.2-4.2,5.5-7.9L567,159.7
	c-0.7-3.8-4.2-6.2-7.9-5.5l0,0L525.9,160.1z"/>
<path class="st3" d="M463.6,175l37.2-6.6c0.7-0.1,1.3,0.3,1.4,1l0,0c0.1,0.7-0.3,1.3-1,1.4l-37.2,6.6c-0.7,0.1-1.3-0.3-1.4-1l0,0
	C462.4,175.8,462.9,175.2,463.6,175z"/>
<ellipse transform="matrix(0.9847 -0.1741 0.1741 0.9847 -21.3979 91.4494)" class="st3" cx="510.6" cy="167.7" rx="1.5" ry="1.5"/>
<g class="st5">
	<polyline class="st6" points="485.9,259.2 486.9,264.5 481.6,265.4 	"/>
	<line class="st7" x1="473.5" y1="266.8" x2="445.1" y2="271.9"/>
	<polyline class="st6" points="441,272.6 435.8,273.5 434.9,268.3 	"/>
	<line class="st8" x1="432.8" y1="256.5" x2="429.6" y2="238.7"/>
	<polyline class="st6" points="428.6,232.8 427.7,227.6 432.9,226.7 	"/>
	<line class="st7" x1="441" y1="225.2" x2="469.5" y2="220.2"/>
	<polyline class="st6" points="473.5,219.5 478.7,218.6 479.7,223.8 	"/>
	<line class="st8" x1="481.8" y1="235.6" x2="484.9" y2="253.3"/>
</g>
<g class="st5">
	<polyline class="st6" points="592.7,419.5 593.6,424.7 588.4,425.6 	"/>
	<line class="st7" x1="580.3" y1="427.1" x2="551.9" y2="432.1"/>
	<polyline class="st6" points="547.8,432.8 542.5,433.8 541.6,428.5 	"/>
	<line class="st8" x1="539.5" y1="416.6" x2="536.4" y2="398.9"/>
	<polyline class="st6" points="535.3,393 534.4,387.7 539.6,386.8 	"/>
	<line class="st7" x1="547.8" y1="385.4" x2="576.2" y2="380.3"/>
	<polyline class="st6" points="580.2,379.6 585.5,378.7 586.4,383.9 	"/>
	<line class="st8" x1="588.5" y1="395.8" x2="591.6" y2="413.5"/>
</g>
<g class="st5">
	<line class="st9" x1="439.8" y1="297.7" x2="567.4" y2="275.1"/>
	<line class="st9" x1="444.3" y1="323.2" x2="572" y2="300.7"/>
	<line class="st9" x1="448.8" y1="348.7" x2="576.5" y2="326.2"/>
	<line class="st9" x1="453.3" y1="374.3" x2="581" y2="351.8"/>
</g>
<polyline class="st10" points="217.6,80.5 459.5,37.7 475.2,126.8 "/>
<polyline class="st10" points="166.8,447.6 195.8,611.8 548.6,549.4 543.6,521.4 "/>
<rect x="267.2" y="496.7" transform="matrix(0.9847 -0.1741 0.1741 0.9847 -83.0234 54.8482)" class="st11" width="8" height="8"/>
<rect x="413.5" y="61.1" transform="matrix(0.9847 -0.1741 0.1741 0.9847 -4.9632 73.669)" class="st11" width="8" height="8"/>
<rect x="178.9" y="455.6" transform="matrix(0.9847 -0.1741 0.1741 0.9847 -77.2137 38.8471)" class="st11" width="8" height="8"/>
<rect x="284.3" y="639.6" transform="matrix(0.9847 -0.1741 0.1741 0.9847 -107.6282 60.0142)" class="st11" width="8" height="8"/>
<rect x="486.4" y="636.3" transform="matrix(0.9847 -0.1741 0.1741 0.9847 -103.9701 95.1323)" class="st11" width="8" height="8"/>
<rect x="326.7" y="303.4" transform="matrix(0.9847 -0.1741 0.1741 0.9847 -48.4637 62.2506)" class="st11" width="8" height="8"/>
<rect x="589.1" y="509.2" transform="matrix(0.9847 -0.1741 0.1741 0.9847 -80.2745 111.069)" class="st11" width="8" height="8"/>
<rect x="572.6" y="69.9" transform="matrix(0.9847 -0.1741 0.1741 0.9847 -4.0634 101.5057)" class="st11" width="8" height="8"/>
</svg>
