<?xml version="1.0" encoding="utf-8"?>
<!-- Generator: Adobe Illustrator 23.0.3, SVG Export Plug-In . SVG Version: 6.00 Build 0)  -->
<svg version="1.1" id="effd0595-b14c-4c7e-b56f-e463e9379f7d"
	 xmlns="http://www.w3.org/2000/svg" xmlns:xlink="http://www.w3.org/1999/xlink" x="0px" y="0px" viewBox="0 0 930 788"
	 style="enable-background:new 0 0 930 788;" xml:space="preserve">
<style type="text/css">
	.st0{fill:#F1F1F1;}
	.st1{fill:none;stroke:#3F3D56;stroke-width:2;stroke-miterlimit:10;}
	.st2{fill:#3F3D56;}
	.st3{fill:#FF6584;}
	.st4{fill:#FFC107;}
	.st5{opacity:0.3;fill:#FFC107;enable-background:new    ;}
</style>
<title>process</title>
<circle class="st0" cx="596.5" cy="107" r="14.8"/>
<circle class="st0" cx="509.5" cy="678" r="14.8"/>
<circle class="st0" cx="142.5" cy="249" r="14.8"/>
<rect x="234.1" y="94.4" transform="matrix(0.2876 -0.9578 0.9578 0.2876 -26.5324 687.1108)" class="st0" width="429" height="534"/>
<line class="st1" x1="459.5" y1="199.4" x2="580.7" y2="248.4"/>
<polygon class="st2" points="462.6,209.5 464.4,208.6 460.3,199.7 469.5,196.2 468.8,194.3 457.5,198.6 "/>
<polygon class="st2" points="571.5,253.5 570.8,251.6 580,248.1 575.8,239.1 577.6,238.3 582.7,249.2 "/>
<circle class="st2" cx="520.1" cy="223.9" r="11"/>
<line class="st1" x1="450.3" y1="538.9" x2="561.9" y2="470.9"/>
<polygon class="st2" points="460.2,542.4 460.6,540.4 451,538.5 453.6,529 451.7,528.4 448.5,540 "/>
<polygon class="st2" points="560.5,481.3 558.6,480.8 561.3,471.3 551.6,469.3 552,467.4 563.8,469.8 "/>
<circle class="st2" cx="506.1" cy="504.9" r="11"/>
<line class="st1" x1="310.1" y1="323.5" x2="310.1" y2="454.2"/>
<polygon class="st2" points="301.9,330.2 303.4,331.5 310.1,324.3 316.8,331.5 318.3,330.2 310.1,321.4 "/>
<polygon class="st2" points="301.9,447.6 303.4,446.2 310.1,453.4 316.8,446.2 318.3,447.6 310.1,456.4 "/>
<circle class="st2" cx="310.1" cy="388.9" r="11"/>
<rect x="217.4" y="57.5" class="st2" width="182" height="226"/>
<path class="st3" d="M297,141.6h-41.3c-2.8-16.3-2.8-33,0-49.2H297C292.3,108.5,292.3,125.5,297,141.6z"/>
<path class="st4" d="M319.8,166.6h41.3c2.8-16.3,2.8-33,0-49.2h-41.3C324.4,133.5,324.4,150.5,319.8,166.6z"/>
<path class="st4" d="M280.8,248.6h41.3c2.8-16.3,2.8-33,0-49.2h-41.3C285.4,215.5,285.4,232.5,280.8,248.6z"/>
<rect x="596.4" y="272.5" class="st2" width="182" height="226"/>
<rect x="622.4" y="320.5" class="st4" width="130" height="6"/>
<rect x="622.4" y="341.5" class="st4" width="130" height="6"/>
<rect x="622.4" y="362.5" class="st4" width="130" height="6"/>
<rect x="622.4" y="383.5" class="st4" width="130" height="6"/>
<rect x="622.4" y="404.5" class="st4" width="130" height="6"/>
<rect x="653.4" y="426.5" class="st4" width="68" height="24"/>
<rect x="233.4" y="504.5" class="st2" width="182" height="226"/>
<rect x="259.7" y="630.3" class="st4" width="130" height="6"/>
<rect x="259.7" y="651.3" class="st4" width="130" height="6"/>
<rect x="259.7" y="672.3" class="st4" width="130" height="6"/>
<rect x="259.7" y="693.3" class="st4" width="130" height="6"/>
<path class="st5" d="M299.5,584.9h-41.3c-2.8-16.3-2.8-33,0-49.2h41.3C294.8,551.8,294.8,568.9,299.5,584.9z"/>
<rect x="316.7" y="540.3" class="st5" width="76" height="5"/>
<rect x="316.7" y="558.3" class="st5" width="76" height="5"/>
<rect x="316.7" y="576.3" class="st5" width="76" height="5"/>
<rect x="316.7" y="594.3" class="st5" width="76" height="5"/>
</svg>
