<?xml version="1.0" encoding="utf-8"?>
<!-- Generator: Adobe Illustrator 23.0.3, SVG Export Plug-In . SVG Version: 6.00 Build 0)  -->
<svg version="1.1" id="a37f41ca-a9f0-4efa-9f9e-7b2dee25605c"
	 xmlns="http://www.w3.org/2000/svg" xmlns:xlink="http://www.w3.org/1999/xlink" x="0px" y="0px" viewBox="0 0 637.5 720.4"
	 style="enable-background:new 0 0 637.5 720.4;" xml:space="preserve">
<style type="text/css">
	.st0{fill:url(#SVGID_1_);}
	.st1{fill:#FFFFFF;}
	.st2{fill:#FAFAFA;}
	.st3{fill:#DBDBDB;}
	.st4{fill:url(#SVGID_2_);}
	.st5{opacity:0.8;}
	.st6{fill:none;stroke:#FFC107;stroke-width:2;stroke-miterlimit:10;}
	.st7{fill:none;stroke:#FFC107;stroke-width:2;stroke-miterlimit:10;stroke-dasharray:9.2972,9.2972;}
	.st8{fill:none;stroke:#FFC107;stroke-width:2;stroke-miterlimit:10;stroke-dasharray:13.5459,13.5459;}
	.st9{fill:none;stroke:#FFC107;stroke-width:2;stroke-miterlimit:10;stroke-dasharray:12;}
	.st10{fill:none;stroke:#3AD29F;stroke-width:2;stroke-miterlimit:10;stroke-dasharray:12;}
	.st11{opacity:0.5;fill:#F55F44;enable-background:new    ;}
</style>
<title>Design process</title>
<linearGradient id="SVGID_1_" gradientUnits="userSpaceOnUse" x1="386.0157" y1="251.9748" x2="386.0157" y2="630.1631" gradientTransform="matrix(1 0 0 -1 -281.2511 630.1653)">
	<stop  offset="0" style="stop-color:#808080;stop-opacity:0.25"/>
	<stop  offset="0.5351" style="stop-color:#808080;stop-opacity:0.12"/>
	<stop  offset="1" style="stop-color:#808080;stop-opacity:0.1"/>
</linearGradient>
<path class="st0" d="M8,0h193.6c4.4,0,8,3.6,8,8v362.3c0,4.4-3.6,8-8,8H8c-4.4,0-8-3.6-8-8V8C0,3.6,3.6,0,8,0C8,0,8,0,8,0z"/>
<path class="st1" d="M16.5,5.1h176.6c7.5,0,13.6,6.1,13.6,13.6v340.7c0,7.5-6.1,13.6-13.6,13.6H16.5c-7.5,0-13.6-6.1-13.6-13.6V18.7
	C2.8,11.2,8.9,5.1,16.5,5.1z"/>
<path class="st2" d="M156,14.3c-1.2,8.1-8.1,14-16.3,14.1l-70.4,0c-8.2,0-15.1-6-16.3-14.1l-37.3,0c-4.3,0-7.7,3.5-7.7,7.7
	c0,0,0,0,0,0l0,334c0,4.3,3.5,7.7,7.7,7.7c0,0,0,0,0,0l178.2,0c4.3,0,7.7-3.5,7.7-7.7l0,0l0-334c0-4.3-3.5-7.7-7.7-7.7h0L156,14.3z"
	/>
<path class="st3" d="M83.8,18.7h42.6c0.8,0,1.4,0.6,1.4,1.4v0c0,0.8-0.6,1.4-1.4,1.4H83.8c-0.8,0-1.4-0.6-1.4-1.4v0
	C82.3,19.4,83,18.7,83.8,18.7z"/>
<circle class="st3" cx="137.4" cy="19.9" r="1.7"/>
<linearGradient id="SVGID_2_" gradientUnits="userSpaceOnUse" x1="789.8701" y1="76.7436" x2="789.8701" y2="454.9319" gradientTransform="matrix(1 0 0 -1 -281.2511 630.1653)">
	<stop  offset="0" style="stop-color:#808080;stop-opacity:0.25"/>
	<stop  offset="0.5351" style="stop-color:#808080;stop-opacity:0.12"/>
	<stop  offset="1" style="stop-color:#808080;stop-opacity:0.1"/>
</linearGradient>
<path class="st4" d="M411.8,175.2h193.6c4.4,0,8,3.6,8,8v0v362.3c0,4.4-3.6,8-8,8h0H411.8c-4.4,0-8-3.6-8-8V183.2
	C403.9,178.8,407.4,175.2,411.8,175.2L411.8,175.2z"/>
<path class="st1" d="M420.3,180.3h176.6c7.5,0,13.6,6.1,13.6,13.6v340.7c0,7.5-6.1,13.6-13.6,13.6H420.3c-7.5,0-13.6-6.1-13.6-13.6
	V194C406.7,186.4,412.8,180.3,420.3,180.3z"/>
<path class="st2" d="M559.8,189.6c-1.2,8.1-8.1,14-16.3,14.1l-70.4,0c-8.2,0-15.1-6-16.3-14.1l-37.3,0c-4.3,0-7.7,3.5-7.7,7.7l0,0
	l0,334c0,4.3,3.5,7.7,7.7,7.7l0,0l178.2,0c4.3,0,7.7-3.5,7.7-7.7l0-334c0-4.3-3.5-7.7-7.7-7.7l0,0L559.8,189.6z"/>
<path class="st3" d="M487.6,194h42.6c0.8,0,1.4,0.6,1.4,1.4v0c0,0.8-0.6,1.4-1.4,1.4h-42.6c-0.8,0-1.4-0.6-1.4-1.4v0
	C486.2,194.6,486.8,194,487.6,194z"/>
<circle class="st3" cx="541.3" cy="195.1" r="1.7"/>
<g class="st5">
	<polyline class="st6" points="495.9,291.9 495.9,297.9 489.9,297.9 	"/>
	<line class="st7" x1="480.6" y1="297.9" x2="448.1" y2="297.9"/>
	<polyline class="st6" points="443.4,297.9 437.4,297.9 437.4,291.9 	"/>
	<line class="st8" x1="437.4" y1="278.4" x2="437.4" y2="258"/>
	<polyline class="st6" points="437.4,251.3 437.4,245.3 443.4,245.3 	"/>
	<line class="st7" x1="452.7" y1="245.3" x2="485.3" y2="245.3"/>
	<polyline class="st6" points="489.9,245.3 495.9,245.3 495.9,251.3 	"/>
	<line class="st8" x1="495.9" y1="264.8" x2="495.9" y2="285.1"/>
</g>
<g class="st5">
	<polyline class="st6" points="583,490.8 583,496.8 577,496.8 	"/>
	<line class="st7" x1="567.7" y1="496.8" x2="535.2" y2="496.8"/>
	<polyline class="st6" points="530.5,496.8 524.5,496.8 524.5,490.8 	"/>
	<line class="st8" x1="524.5" y1="477.2" x2="524.5" y2="456.9"/>
	<polyline class="st6" points="524.5,450.1 524.5,444.1 530.5,444.1 	"/>
	<line class="st7" x1="539.8" y1="444.1" x2="572.4" y2="444.1"/>
	<polyline class="st6" points="577,444.1 583,444.1 583,450.1 	"/>
	<line class="st8" x1="583" y1="463.7" x2="583" y2="484"/>
</g>
<g class="st5">
	<line class="st9" x1="437.1" y1="325.5" x2="583.3" y2="325.5"/>
	<line class="st9" x1="437.1" y1="354.8" x2="583.3" y2="354.8"/>
	<line class="st9" x1="437.1" y1="384" x2="583.3" y2="384"/>
	<line class="st9" x1="437.1" y1="413.3" x2="583.3" y2="413.3"/>
</g>
<polyline class="st10" points="233,40.7 510,40.7 510,142.7 "/>
<polyline class="st10" points="104.5,438.4 104.5,626.4 508.5,626.4 508.5,594.4 "/>
<rect x="205.5" y="513.4" class="st11" width="9" height="9"/>
<rect x="453.5" y="58.4" class="st11" width="9" height="9"/>
<rect x="115.5" y="450.4" class="st11" width="9" height="9"/>
<rect x="196.5" y="675.4" class="st11" width="9" height="9"/>
<rect x="421.5" y="711.4" class="st11" width="9" height="9"/>
<rect x="309.5" y="310.4" class="st11" width="9" height="9"/>
<rect x="560.5" y="590.4" class="st11" width="9" height="9"/>
<rect x="628.5" y="99.4" class="st11" width="9" height="9"/>
</svg>
