<?xml version="1.0" encoding="utf-8"?>
<!-- Generator: Adobe Illustrator 23.0.4, SVG Export Plug-In . SVG Version: 6.00 Build 0)  -->
<svg version="1.1" id="b411f001-b16f-4358-a5a6-150c98662c8c"
	 xmlns="http://www.w3.org/2000/svg" xmlns:xlink="http://www.w3.org/1999/xlink" x="0px" y="0px" viewBox="0 0 987.6 787.4"
	 style="enable-background:new 0 0 987.6 787.4;" xml:space="preserve">
<style type="text/css">
	.st0{opacity:0.1;fill:#FFC107;enable-background:new    ;}
	.st1{opacity:0.1;fill:#3F3C56;enable-background:new    ;}
	.st2{opacity:0.9;fill:#96B7FE;enable-background:new    ;}
	.st3{opacity:0.1;enable-background:new    ;}
	.st4{fill:#FFC107;}
	.st5{opacity:0.3;fill:#FFC107;enable-background:new    ;}
	.st6{opacity:0.2;fill:#FFFFFF;enable-background:new    ;}
	.st7{opacity:0.3;fill:#3F3C56;enable-background:new    ;}
</style>
<title>science</title>
<ellipse class="st0" cx="537" cy="768.3" rx="103.8" ry="10.4"/>
<ellipse class="st0" cx="222.7" cy="763.5" rx="78.7" ry="4.9"/>
<path class="st1" d="M362.5,34.7c29.2-26,75.1-31.3,116.8-29.3c131.1,6.5,249.4,69.8,351.8,141.4c37.1,25.9,73.5,53.8,97.6,89.5
	c49,72.6,34.4,173.3-33.6,233.1c-23.2,20.4-51.2,36-80.1,49.8c-51.3,24.6-106.6,44.4-164.7,50c-41.5,4-83.5,0.8-124.7-4.8
	c-115.2-15.6-228.3-50.2-323.1-109.3c-41.6-26-80.8-58.2-97.9-100.1s-6.2-95.1,36.3-119.9c17.6-10.3,38.6-14.9,59.1-19.3
	c30.3-6.4,61-12.7,88.3-25.8c28.2-13.5,61.6-39.5,56-69.3C338.2,88.7,333.3,60.7,362.5,34.7z"/>
<path class="st2" d="M604.6,392.2v-191h26v-57H444.3v57h26v190.9c-73.5,27.9-122.1,98.4-122.1,177c0,104.5,84.8,189.3,189.3,189.3
	s189.3-84.8,189.3-189.3C726.7,490.5,678.1,420.1,604.6,392.2z"/>
<rect x="470.2" y="200.7" class="st3" width="134.3" height="2.6"/>
<path class="st4" d="M431.5,564.1c0,0,114-2,171-30.5s89.6-3.1,86.5,14.2s-19.3,50.9-84.5,55S431.5,564.1,431.5,564.1z"/>
<path class="st3" d="M431.5,564.1c0,0,114-2,171-30.5s89.6-3.1,86.5,14.2s-19.3,50.9-84.5,55S431.5,564.1,431.5,564.1z"/>
<path class="st4" d="M382.7,545.8c0,0-12.2,169,147.6,172s158.8-170,158.8-170s-59,64.1-198.5,11.2
	C490.6,559,418.3,539.7,382.7,545.8z"/>
<path class="st3" d="M688.5,548.4c-3.2,38.9-23.9,160.8-158.2,158.2C398.7,704.1,383.8,589,382.6,548.5
	c-0.7,21.7-0.1,166.5,147.7,169.3c159.8,3,158.8-170,158.8-170S688.9,548,688.5,548.4z"/>
<circle class="st5" cx="531.2" cy="472.9" r="20.7"/>
<ellipse class="st5" cx="543.1" cy="390" rx="12.8" ry="12.8"/>
<circle class="st5" cx="514.4" cy="315.9" r="12.8"/>
<path class="st6" d="M404.5,488.9c-1.1,8.7-0.9,19.7,6.9,23.8c-6.5-3.4,20.3-42.2,16.5-50.1C419.8,445.6,405.5,480.8,404.5,488.9z"
	/>
<ellipse transform="matrix(0.2298 -0.9732 0.9732 0.2298 305.1661 556.3939)" class="st7" cx="504.1" cy="85.4" rx="20.7" ry="20.7"/>
<circle class="st7" cx="566.3" cy="49.9" r="15.4"/>
<circle class="st7" cx="521.8" cy="8.4" r="8"/>
<path class="st2" d="M307.5,263.6H140v49.7h25.5V701c-0.4,32.2,25.3,58.6,57.5,59s58.6-25.3,59-57.5c0-0.5,0-1,0-1.5V313.3h25.5
	V263.6z"/>
<path class="st4" d="M204.3,401.1c0,0,41.5-14.8,53-4.3c0,0-16.8,24.7-32.2,23.7S204.3,401.1,204.3,401.1z"/>
<path class="st3" d="M204.3,401.1c0,0,41.5-14.8,53-4.3c0,0-16.8,24.7-32.2,23.7S204.3,401.1,204.3,401.1z"/>
<path class="st4" d="M257.3,396.9v281.4c0,19.6-15.9,35.5-35.5,35.5l0,0c-19.6,0-35.5-15.9-35.5-35.5V396.9c0,0,17.1-4.6,33.2,5.3
	S257.3,396.9,257.3,396.9z"/>
<rect x="165.5" y="313" class="st3" width="116.5" height="2.3"/>
<path class="st3" d="M221.8,696.7L221.8,696.7c-19.6,0-35.5-15.9-35.5-35.5l0,0V679c0,19.6,15.9,35.5,35.5,35.5l0,0
	c19.6,0,35.5-15.9,35.5-35.5v-17.8C257.3,680.7,241.4,696.6,221.8,696.7L221.8,696.7z"/>
<circle class="st5" cx="221.8" cy="362" r="7.2"/>
<circle class="st5" cx="245.5" cy="336.3" r="4.6"/>
<circle class="st5" cx="213.2" cy="327.1" r="4.6"/>
<path class="st6" d="M174.5,454.3c-1.1,8.7-0.9,19.7,6.9,23.8c-6.6-3.4,20.3-42.2,16.5-50.1C189.8,411.1,175.5,446.2,174.5,454.3z"
	/>
<circle class="st7" cx="236.8" cy="214.9" r="17.6"/>
<circle class="st7" cx="184" cy="184.7" r="13.1"/>
<circle class="st7" cx="221.7" cy="149.6" r="6.8"/>
</svg>
