<?xml version="1.0" encoding="utf-8"?>
<!-- Generator: Adobe Illustrator 23.0.3, SVG Export Plug-In . SVG Version: 6.00 Build 0)  -->
<svg version="1.1" id="b7c4787f-e4a8-4036-aa60-d215daeece2d"
	 xmlns="http://www.w3.org/2000/svg" xmlns:xlink="http://www.w3.org/1999/xlink" x="0px" y="0px" viewBox="0 0 989.1 610.3"
	 style="enable-background:new 0 0 989.1 610.3;" xml:space="preserve">
<style type="text/css">
	.st0{fill:#F2F2F2;}
	.st1{fill:#3F3D56;}
	.st2{opacity:0.3;fill:#FFC107;enable-background:new    ;}
	.st3{fill:#2F2E41;}
	.st4{fill:#FFC107;}
</style>
<title>goals</title>
<rect x="607.5" y="-97.7" transform="matrix(0.5098 -0.8603 0.8603 0.5098 69.1464 674.6222)" class="st0" width="38" height="748.7"/>
<rect x="467.5" y="-65.7" transform="matrix(0.5098 -0.8603 0.8603 0.5098 -27.0133 569.8671)" class="st0" width="38" height="748.7"/>
<rect x="343.5" y="-30.7" transform="matrix(0.5098 -0.8603 0.8603 0.5098 -117.9105 480.3476)" class="st0" width="38" height="748.7"/>
<circle class="st1" cx="538.7" cy="315.2" r="201.7"/>
<path class="st2" d="M538.7,352c-19.9,0-35.9-16.1-35.9-35.9s16.1-35.9,35.9-35.9c19.9,0,35.9,16.1,35.9,35.9v0
	C574.7,335.9,558.6,352,538.7,352z M538.7,281.9c-18.9,0-34.2,15.3-34.2,34.2c0,18.9,15.3,34.2,34.2,34.2
	c18.9,0,34.2-15.3,34.2-34.2v0C572.9,297.2,557.6,281.9,538.7,281.9L538.7,281.9z"/>
<path class="st2" d="M538.7,384.5c-37.8,0-68.4-30.6-68.4-68.4s30.6-68.4,68.4-68.4s68.4,30.6,68.4,68.4v0
	C607.1,353.8,576.5,384.4,538.7,384.5z M538.7,249.4c-36.8,0-66.6,29.8-66.6,66.6s29.8,66.6,66.6,66.6c36.8,0,66.6-29.8,66.6-66.6
	C605.3,279.3,575.5,249.5,538.7,249.4L538.7,249.4z"/>
<path class="st2" d="M538.7,412.5c-53.3,0-96.5-43.2-96.5-96.5s43.2-96.5,96.5-96.5c53.3,0,96.5,43.2,96.5,96.5
	C635.1,369.3,592,412.5,538.7,412.5z M538.7,221.4c-52.3,0-94.7,42.4-94.7,94.7s42.4,94.7,94.7,94.7s94.7-42.4,94.7-94.7l0,0
	C633.4,263.8,591,221.4,538.7,221.4L538.7,221.4z"/>
<path class="st2" d="M538.7,449.4c-73.5,0-133.3-59.8-133.3-133.3c0-73.5,59.8-133.3,133.3-133.3c73.5,0,133.3,59.8,133.3,133.3
	C672,389.6,612.2,449.4,538.7,449.4z M538.7,184.6c-72.5,0-131.5,59-131.5,131.5c0,72.5,59,131.5,131.5,131.5
	c72.5,0,131.5-59,131.5-131.5C670.3,243.6,611.3,184.6,538.7,184.6L538.7,184.6z"/>
<path class="st2" d="M538.7,480c-90.4,0-164-73.6-164-164s73.6-164,164-164s164,73.6,164,164S629.1,480,538.7,480z M538.7,153.9
	c-89.4,0-162.2,72.8-162.2,162.2c0,89.4,72.8,162.2,162.2,162.2c89.4,0,162.2-72.8,162.2-162.2C700.9,226.6,628.2,153.9,538.7,153.9
	L538.7,153.9z"/>
<circle class="st2" cx="538.7" cy="315.2" r="16.7"/>
<circle class="st2" cx="581.7" cy="363.4" r="16.7"/>
<ellipse transform="matrix(0.1602 -0.9871 0.9871 0.1602 38.7646 758.3973)" class="st2" cx="465.1" cy="356.4" rx="16.7" ry="16.7"/>
<circle class="st3" cx="538.7" cy="315.2" r="7.9"/>
<circle class="st3" cx="465.1" cy="356.4" r="7.9"/>
<circle class="st3" cx="581.7" cy="364.3" r="7.9"/>
<circle class="st4" cx="907" cy="226.6" r="7.9"/>
<polygon class="st3" points="539.2,315.6 537.4,315.6 537.4,225.3 885.5,225.3 885.5,227.1 539.2,227.1 "/>
<path class="st3" d="M907,249.4c-12.6,0-22.8-10.2-22.8-22.8c0-12.6,10.2-22.8,22.8-22.8c12.6,0,22.8,10.2,22.8,22.8
	C929.8,239.2,919.6,249.4,907,249.4z M907,205.6c-11.6,0-21,9.4-21,21c0,11.6,9.4,21,21,21c11.6,0,21-9.4,21-21
	C928,215,918.6,205.6,907,205.6L907,205.6z"/>
<circle class="st4" cx="854.4" cy="453.7" r="7.9"/>
<path class="st3" d="M854.4,476.5c-12.6,0-22.8-10.2-22.8-22.8s10.2-22.8,22.8-22.8c12.6,0,22.8,10.2,22.8,22.8l0,0
	C877.2,466.3,867,476.5,854.4,476.5z M854.4,432.7c-11.6,0-21,9.4-21,21s9.4,21,21,21s21-9.4,21-21
	C875.4,442.1,866,432.7,854.4,432.7L854.4,432.7z"/>
<circle class="st4" cx="220.4" cy="263.5" r="7.9"/>
<path class="st3" d="M220.4,286.3c-12.6,0-22.8-10.2-22.8-22.8s10.2-22.8,22.8-22.8s22.8,10.2,22.8,22.8
	C243.2,276.1,233,286.3,220.4,286.3z M220.4,242.4c-11.6,0-21,9.4-21,21c0,11.6,9.4,21,21,21c11.6,0,21-9.4,21-21c0,0,0,0,0,0
	C241.5,251.9,232.1,242.4,220.4,242.4L220.4,242.4z"/>
<polygon class="st3" points="466,356.4 464.2,356.4 464.2,267.8 242.4,264.4 242.4,262.6 466,266.1 "/>
<polygon class="st3" points="832.5,454.6 580.8,454.6 580.8,364.3 582.6,364.3 582.6,452.9 832.5,452.9 "/>
<rect x="858.8" y="267.9" class="st3" width="96.5" height="6.1"/>
<rect x="858.8" y="285.4" class="st3" width="96.5" height="6.1"/>
<rect x="858.8" y="302.9" class="st3" width="96.5" height="6.1"/>
<rect x="806.2" y="495" class="st3" width="96.5" height="6.1"/>
<rect x="806.2" y="512.5" class="st3" width="96.5" height="6.1"/>
<rect x="806.2" y="530" class="st3" width="96.5" height="6.1"/>
<rect x="172.2" y="305.6" class="st3" width="96.5" height="6.1"/>
<rect x="172.2" y="323.1" class="st3" width="96.5" height="6.1"/>
<rect x="172.2" y="340.6" class="st3" width="96.5" height="6.1"/>
</svg>
